<svg xmlns="http://www.w3.org/2000/svg" class="iconAboveSlogan" viewBox="0 0 300 300"><rect width="300" height="300" x="0" y="0" fill="#0B173D" class="logo-background-square"/><g id="bcc75ec5-733e-4973-8ba7-04a4766d3e9c" fill="#D1A103"><path d="M5.46 10.50L1.55 10.50L1.55 9.80L3.14 9.80L3.14 2.03L1.55 2.03L1.55 1.33L5.46 1.33L5.46 2.03L3.91 2.03L3.91 9.80L5.46 9.80L5.46 10.50ZM8.06 3.85L8.78 3.85L8.81 4.41L8.81 4.41Q10.16 3.77 11.06 3.77L11.06 3.77L11.06 3.77Q11.96 3.77 12.47 4.38L12.47 4.38L12.47 4.38Q12.98 5.00 12.98 6.06L12.98 6.06L12.98 10.50L12.24 10.50L12.24 6.06L12.24 6.06Q12.24 5.38 11.90 4.93L11.90 4.93L11.90 4.93Q11.56 4.49 10.89 4.49L10.89 4.49L10.89 4.49Q10.22 4.49 8.81 5.11L8.81 5.11L8.81 10.50L8.06 10.50L8.06 3.85ZM15.06 3.85L15.78 3.85L15.81 4.41L15.81 4.41Q17.16 3.77 18.06 3.77L18.06 3.77L18.06 3.77Q18.96 3.77 19.47 4.38L19.47 4.38L19.47 4.38Q19.98 5.00 19.98 6.06L19.98 6.06L19.98 10.50L19.24 10.50L19.24 6.06L19.24 6.06Q19.24 5.38 18.90 4.93L18.90 4.93L18.90 4.93Q18.56 4.49 17.89 4.49L17.89 4.49L17.89 4.49Q17.22 4.49 15.81 5.11L15.81 5.11L15.81 10.50L15.06 10.50L15.06 3.85ZM21.83 7.20L21.83 7.20L21.83 7.20Q21.83 3.77 24.50 3.77L24.50 3.77L24.50 3.77Q27.17 3.77 27.17 7.20L27.17 7.20L27.17 7.20Q27.17 10.63 24.50 10.63L24.50 10.63L24.50 10.63Q21.83 10.63 21.83 7.20ZM24.50 4.49L24.50 4.49L24.50 4.49Q22.62 4.49 22.62 7.20L22.62 7.20L22.62 7.20Q22.62 9.90 24.50 9.90L24.50 9.90L24.50 9.90Q26.38 9.90 26.38 7.20L26.38 7.20L26.38 7.20Q26.38 4.49 24.50 4.49ZM30.84 10.50L28.74 3.85L29.58 3.85L31.42 9.83L31.67 9.83L33.43 3.85L34.27 3.85L32.24 10.50L30.84 10.50ZM40.96 10.50L36.15 10.50L36.15 1.33L40.92 1.33L40.92 2.02L36.92 2.02L36.92 5.49L40.54 5.49L40.54 6.17L36.92 6.17L36.92 9.81L40.96 9.81L40.96 10.50ZM44.69 10.50L42.84 10.50L42.84 1.33L44.72 1.33L44.72 1.33Q45.75 1.33 46.42 1.53L46.42 1.53L46.42 1.53Q47.08 1.74 47.54 2.25L47.54 2.25L47.54 2.25Q48.01 2.77 48.21 3.66L48.21 3.66L48.21 3.66Q48.41 4.55 48.41 5.92L48.41 5.92L48.41 5.92Q48.41 7.28 48.19 8.18L48.19 8.18L48.19 8.18Q47.96 9.09 47.47 9.59L47.47 9.59L47.47 9.59Q46.98 10.09 46.33 10.30L46.33 10.30L46.33 10.30Q45.67 10.50 44.69 10.50L44.69 10.50ZM46.36 9.49L46.36 9.49L46.36 9.49Q46.96 9.18 47.27 8.34L47.27 8.34L47.27 8.34Q47.59 7.49 47.59 5.92L47.59 5.92L47.59 5.92Q47.59 4.34 47.28 3.49L47.28 3.49L47.28 3.49Q46.97 2.65 46.38 2.34L46.38 2.34L46.38 2.34Q45.79 2.03 44.72 2.03L44.72 2.03L43.61 2.03L43.61 9.80L44.69 9.80L44.69 9.80Q45.77 9.80 46.36 9.49ZM49.76 7.85L49.76 7.85L49.76 1.33L50.53 1.33L50.53 7.76L50.53 7.76Q50.53 9.91 52.50 9.91L52.50 9.91L52.50 9.91Q53.49 9.91 53.98 9.32L53.98 9.32L53.98 9.32Q54.47 8.72 54.47 7.76L54.47 7.76L54.47 1.33L55.24 1.33L55.24 7.85L55.24 7.85Q55.24 9.21 54.54 9.93L54.54 9.93L54.54 9.93Q53.83 10.64 52.47 10.64L52.47 10.64L52.47 10.64Q51.11 10.64 50.44 9.90L50.44 9.90L50.44 9.90Q49.76 9.16 49.76 7.85Z" transform="matrix(4.842614650726318,0,0,4.842614650726318,12.49394730346601,154.46493931693433)"/></g><defs><linearGradient id="9241e0c1-05f1-4cd8-8c56-caacdb7e0075" x1="0%" x2="100%" y1="0%" y2="0%" gradientTransform="rotate(25)"><stop offset="0%" stop-color="#D1A103" stop-opacity="1"/><stop offset="100%" stop-color="#65B545" stop-opacity="1"/></linearGradient></defs><g id="249204ee-cc97-4c6f-ad02-078e39711477" fill="url(#9241e0c1-05f1-4cd8-8c56-caacdb7e0075)" stroke="none" transform="matrix(0.9262399673461914,0,0,0.9262399673461914,103.69957755420964,56.20954563125307)"><path d="M96.5 9.6h-64c-1.3 0-2.3 1-2.3 2.3 0 1.3 1 2.3 2.3 2.3h4.2V35l1 1.6 3.5 1V14.2h46.5v39.4H41.3v-7.1l6.5 1.3c1.2.2 2.5-.5 2.8-1.7.4-1.3-.4-2.6-1.7-3l-12.5-3.6-5.9-9.3c-.1-.1-.1-.2-.2-.3-.6-.6-1.9-1.7-2.6-2.2-2.9-2.2-5.7-3.6-6.3-3.9-.1 0-.1-.1-.1-.2v-2.3c.3-.7.6-1.5.7-2.1.1 0 .1.1.2.1.3 0 .7-.4 1.2-2s.2-2.2-.2-2.3c1.3-6.1-1.6-6.4-1.6-6.4s-.6-.8-1.8-1.5c-.7-.4-1.6-.7-2.7-.7h-.6c-.5 0-.9.1-1.3.2-.5.2-1 .4-1.5.7-.5.3-1 .8-1.5 1.2-.7.7-1.3 1.7-1.6 2.8-.3 1-.3 2.1.1 3.2h-.1c-.5 0-1 .4-.5 2.3.4 1.5.8 1.9 1.1 2 .1.9.4 1.8.9 2.7v2c0 .1-.1.2-.1.2-.7.4-4.5 2.2-7.9 5-.5.4-.8.9-.9 1.5l-1.8 11c-.3 1.6-.3 3.3 0 4.9l1.9 12.3c.2 1.3 1.3 2.1 2.6 2 1-.1 1.8-.7 2.1-1.6l2.4 32.7c.1 1.2 1.1 2.1 2.2 2.1H20c1.2 0 2.2-.9 2.2-2.1L25 58.2l2.2-20 3.7 5.3c.5.7 1.3 1.2 2.1 1.4l3.6.7v8.3c0 2.3 1.9 4.3 4.3 4.3h21.3v10.7L41.7 89.4c-.9.9-.9 2.3 0 3.2.4.4 1 .7 1.6.7s1.2-.2 1.6-.7l17.3-17.3V91c0 1.3 1 2.3 2.3 2.3s2.3-1 2.3-2.3V75.3l17.3 17.3c.4.4 1 .7 1.6.7.6 0 1.2-.2 1.6-.7.9-.9.9-2.3 0-3.2L66.8 68.8V58.1H88c2.3 0 4.3-1.9 4.3-4.3V14.2h4.2c1.3 0 2.3-1 2.3-2.3 0-1.3-1-2.3-2.3-2.3zM16.6 44l-2.1-2.4 1.4-11.7c-2.7-3.9.2-4 .7-4 .5 0 3.5.2.7 4.1l1.3 11.7-2 2.3zm51.6.4v.9c0 .7-.6 1.4-1.3 1.5l-.2.8c-.1.5-.6.8-1 .8h-2.3c-.5 0-.9-.3-1-.8l-.2-.8c-.7-.1-1.3-.7-1.3-1.5v-.9c0-.5.4-.9.9-.9h5.5c.5 0 .9.4.9.9zm-3.6-23.2c-.5 0-.9-.4-.9-.9v-3.1c0-.5.4-.9.9-.9s.9.4.9.9v3.1c0 .5-.4.9-.9.9zm-11.3 9.5c.5 0 .9.4.9.9s-.4.9-.9.9h-3.1c-.5 0-.9-.4-.9-.9s.4-.9.9-.9h3.1zm22.6 1.8c-.5 0-.9-.4-.9-.9s.4-.9.9-.9H79c.5 0 .9.4.9.9s-.4.9-.9.9h-3.1zM57.2 39c.4.4.4.9 0 1.3L55 42.5c-.2.2-.4.3-.6.3-.2 0-.5-.1-.6-.3-.4-.4-.4-.9 0-1.3L56 39c.3-.4.9-.4 1.2 0zm18.3-18.3c.4.4.4.9 0 1.3l-2.2 2.2c-.2.2-.4.3-.6.3s-.5-.1-.7-.3c-.4-.4-.4-.9 0-1.3l2.2-2.2c.4-.3.9-.3 1.3 0zm-18.3 2.2c.4.4.4.9 0 1.3-.2.2-.4.3-.6.3-.2 0-.5-.1-.6-.3L53.7 22c-.4-.4-.4-.9 0-1.3s.9-.4 1.3 0l2.2 2.2zM73.3 39l2.2 2.2c.4.4.4.9 0 1.3-.2.2-.4.3-.6.3-.2 0-.5-.1-.6-.3L72 40.2c-.4-.4-.4-.9 0-1.3.4-.3.9-.3 1.3.1zm-16.9-7.2c0 2.1.9 4.1 2.3 5.6.8.9 1.4 2 1.6 3.2.2 1 1 1.8 2.1 1.8h4.5c1 0 1.9-.8 2.1-1.8.2-1.2.7-2.3 1.6-3.2 1.5-1.5 2.3-3.6 2.3-5.7 0-4.5-3.7-8.2-8.3-8.2h-.1c-4.5 0-8.2 3.7-8.1 8.3zm5.8 1.5c1-1.7 2-3.4 3-5.2.1-.1.1-.2.3-.2.2.1.1.2.1.4-.1.4-.2.9-.2 1.3-.1.8-.3 1.5-.4 2.3v.2h2c.3 0 .4.1.2.4-1 1.7-2 3.4-3 5.2-.1.1-.1.2-.3.2-.2-.1-.1-.2-.1-.4.1-.4.2-.9.2-1.3.1-.8.3-1.5.4-2.3v-.2h-2c-.3 0-.4-.1-.2-.4z"/></g><defs><linearGradient id="8336e6e2-deae-4272-8462-c6df0aa994a5" x1="0%" x2="100%" y1="0%" y2="0%" gradientTransform="rotate(25)"><stop offset="0%" stop-color="#65B545" stop-opacity="1"/><stop offset="100%" stop-color="#D1A103" stop-opacity="1"/></linearGradient></defs><g id="167bd001-483b-40a7-941a-4b238cf39c9a" fill="url(#8336e6e2-deae-4272-8462-c6df0aa994a5)" transform="matrix(1.7782236337661743,0,0,1.7782236337661743,50.57951836597127,214.06988130860574)"><path d="M1.78 10.50L1.08 10.50L1.08 1.20L1.82 1.20L1.82 4.49L1.82 4.49Q2.87 3.77 3.72 3.77L3.72 3.77L3.72 3.77Q4.98 3.77 5.67 4.63L5.67 4.63L5.67 4.63Q6.36 5.49 6.36 7.08L6.36 7.08L6.36 7.08Q6.36 8.68 5.59 9.65L5.59 9.65L5.59 9.65Q4.82 10.63 3.49 10.63L3.49 10.63L3.49 10.63Q2.67 10.63 1.81 10.22L1.81 10.22L1.78 10.50ZM5.56 7.10L5.56 7.10L5.56 7.10Q5.56 5.87 5.08 5.18L5.08 5.18L5.08 5.18Q4.59 4.49 3.68 4.49L3.68 4.49L3.68 4.49Q2.77 4.49 1.82 5.29L1.82 5.29L1.82 9.49L1.82 9.49Q2.11 9.63 2.63 9.77L2.63 9.77L2.63 9.77Q3.14 9.90 3.46 9.90L3.46 9.90L3.46 9.90Q4.44 9.90 5.00 9.11L5.00 9.11L5.00 9.11Q5.56 8.33 5.56 7.10ZM10.18 10.60L7.74 3.85L8.58 3.85L10.56 9.51L10.67 9.51L12.43 3.85L13.27 3.85L10.70 11.63L10.70 11.63Q10.33 12.74 9.93 13.05L9.93 13.05L9.93 13.05Q9.53 13.36 8.32 13.38L8.32 13.38L8.32 12.67L8.32 12.67Q9.10 12.66 9.37 12.45L9.37 12.45L9.37 12.45Q9.63 12.24 9.86 11.56L9.86 11.56L10.18 10.60ZM24.02 7.14L24.02 7.14L22.74 7.14L22.74 10.50L21.97 10.50L21.97 1.33L24.02 1.33L24.02 1.33Q25.70 1.33 26.51 1.97L26.51 1.97L26.51 1.97Q27.31 2.60 27.31 4.17L27.31 4.17L27.31 4.17Q27.31 5.74 26.50 6.44L26.50 6.44L26.50 6.44Q25.69 7.14 24.02 7.14ZM24.02 2.03L24.02 2.03L22.74 2.03L22.74 6.44L24.02 6.44L24.02 6.44Q25.31 6.44 25.91 5.92L25.91 5.92L25.91 5.92Q26.50 5.40 26.50 4.19L26.50 4.19L26.50 4.19Q26.50 2.97 25.91 2.50L25.91 2.50L25.91 2.50Q25.33 2.03 24.02 2.03ZM28.94 7.18L28.94 7.18L28.94 7.18Q28.94 5.57 29.60 4.67L29.60 4.67L29.60 4.67Q30.27 3.77 31.54 3.77L31.54 3.77L31.54 3.77Q32.82 3.77 33.44 4.61L33.44 4.61L33.44 4.61Q34.06 5.45 34.06 6.85L34.06 6.85L34.02 7.55L29.74 7.55L29.74 7.55Q29.81 8.60 30.30 9.25L30.30 9.25L30.30 9.25Q30.79 9.90 31.65 9.90L31.65 9.90L31.65 9.90Q32.51 9.90 33.67 9.49L33.67 9.49L33.88 10.19L33.88 10.19Q32.75 10.63 31.75 10.63L31.75 10.63L31.75 10.63Q30.38 10.63 29.66 9.71L29.66 9.71L29.66 9.71Q28.94 8.79 28.94 7.18ZM31.60 4.48L31.60 4.48L31.60 4.48Q29.83 4.48 29.74 6.85L29.74 6.85L33.26 6.85L33.26 6.85Q33.26 4.48 31.60 4.48ZM38.05 9.90L38.05 9.90L38.05 9.90Q38.57 9.90 39.18 9.57L39.18 9.57L39.18 9.57Q39.79 9.24 40.07 8.96L40.07 8.96L40.07 7.29L40.07 7.29Q39.14 7.22 38.30 7.22L38.30 7.22L38.30 7.22Q37.46 7.22 37.04 7.58L37.04 7.58L37.04 7.58Q36.62 7.94 36.62 8.54L36.62 8.54L36.62 8.54Q36.62 9.90 38.05 9.90ZM38.04 10.63L38.04 10.63L38.04 10.63Q37.02 10.63 36.43 10.10L36.43 10.10L36.43 10.10Q35.84 9.58 35.84 8.61L35.84 8.61L35.84 8.61Q35.84 7.64 36.48 7.11L36.48 7.11L36.48 7.11Q37.13 6.57 38.19 6.57L38.19 6.57L38.19 6.57Q39.26 6.57 40.07 6.65L40.07 6.65L40.07 6.65Q40.07 5.40 39.76 4.95L39.76 4.95L39.76 4.95Q39.45 4.49 38.51 4.49L38.51 4.49L38.51 4.49Q37.58 4.49 36.30 4.94L36.30 4.94L36.09 4.24L36.09 4.24Q37.39 3.77 38.44 3.77L38.44 3.77L38.44 3.77Q39.83 3.77 40.32 4.38L40.32 4.38L40.32 4.38Q40.81 5.00 40.81 6.54L40.81 6.54L40.81 9.48L40.92 10.54L40.21 10.61L40.07 9.77L40.07 9.77Q39.75 10.05 39.16 10.34L39.16 10.34L39.16 10.34Q38.57 10.63 38.04 10.63ZM47.03 3.85L47.03 3.85L47.87 3.85L47.87 3.85Q46.89 5.43 45.61 6.96L45.61 6.96L45.61 6.96Q46.48 8.19 47.95 10.50L47.95 10.50L47.11 10.50L47.11 10.50Q45.99 8.68 45.08 7.41L45.08 7.41L44.10 7.53L44.10 10.50L43.36 10.50L43.36 1.20L44.10 1.20L44.10 6.86L45.01 6.72L45.01 6.72Q46.00 5.43 47.03 3.85ZM54.05 9.83L54.78 3.85L55.51 3.85L54.71 10.50L53.23 10.50L52.51 7.60L52.46 7.60L51.73 10.50L50.26 10.50L49.49 3.85L50.22 3.85L50.95 9.83L51.20 9.83L52.14 6.45L52.86 6.45L53.80 9.83L54.05 9.83ZM59.35 4.55L57.72 4.55L57.72 3.85L60.09 3.85L60.09 9.80L61.71 9.80L61.71 10.50L57.61 10.50L57.61 9.80L59.35 9.80L59.35 4.55ZM59.65 2.51L59.65 2.51L59.65 2.51Q59.40 2.51 59.23 2.33L59.23 2.33L59.23 2.33Q59.05 2.16 59.05 1.88L59.05 1.88L59.05 1.88Q59.05 1.61 59.23 1.45L59.23 1.45L59.23 1.45Q59.40 1.29 59.65 1.29L59.65 1.29L59.65 1.29Q59.91 1.29 60.07 1.44L60.07 1.44L60.07 1.44Q60.23 1.60 60.23 1.88L60.23 1.88L60.23 1.88Q60.23 2.16 60.07 2.33L60.07 2.33L60.07 2.33Q59.91 2.51 59.65 2.51ZM68.78 6.02L68.03 6.02L68.03 4.63L68.03 4.63Q67.34 4.48 66.93 4.48L66.93 4.48L66.93 4.48Q65.93 4.48 65.43 5.19L65.43 5.19L65.43 5.19Q64.93 5.91 64.93 7.17L64.93 7.17L64.93 7.17Q64.93 8.43 65.44 9.16L65.44 9.16L65.44 9.16Q65.94 9.90 66.93 9.90L66.93 9.90L66.93 9.90Q67.56 9.90 68.68 9.51L68.68 9.51L68.89 10.21L68.89 10.21Q67.79 10.63 66.95 10.63L66.95 10.63L66.95 10.63Q65.58 10.63 64.86 9.71L64.86 9.71L64.86 9.71Q64.13 8.79 64.13 7.15L64.13 7.15L64.13 7.15Q64.13 5.52 64.85 4.64L64.85 4.64L64.85 4.64Q65.56 3.77 66.95 3.77L66.95 3.77L66.95 3.77Q67.87 3.77 68.78 4.06L68.78 4.06L68.78 6.02ZM75.03 3.85L75.03 3.85L75.87 3.85L75.87 3.85Q74.89 5.43 73.61 6.96L73.61 6.96L73.61 6.96Q74.48 8.19 75.95 10.50L75.95 10.50L75.11 10.50L75.11 10.50Q73.99 8.68 73.08 7.41L73.08 7.41L72.10 7.53L72.10 10.50L71.36 10.50L71.36 1.20L72.10 1.20L72.10 6.86L73.01 6.72L73.01 6.72Q74.00 5.43 75.03 3.85ZM87.17 6.10L87.17 6.10L87.17 6.10Q85.92 5.80 85.34 5.21L85.34 5.21L85.34 5.21Q84.76 4.63 84.76 3.53L84.76 3.53L84.76 3.53Q84.76 2.42 85.52 1.81L85.52 1.81L85.52 1.81Q86.28 1.19 87.49 1.19L87.49 1.19L87.49 1.19Q88.69 1.19 89.94 1.62L89.94 1.62L89.74 2.34L89.74 2.34Q88.58 1.92 87.61 1.92L87.61 1.92L87.61 1.92Q86.63 1.92 86.11 2.33L86.11 2.33L86.11 2.33Q85.60 2.74 85.60 3.53L85.60 3.53L85.60 3.53Q85.60 4.31 86.02 4.72L86.02 4.72L86.02 4.72Q86.44 5.12 87.69 5.45L87.69 5.45L87.69 5.45Q88.94 5.78 89.50 6.32L89.50 6.32L89.50 6.32Q90.06 6.86 90.06 8.06L90.06 8.06L90.06 8.06Q90.06 9.25 89.26 9.95L89.26 9.95L89.26 9.95Q88.45 10.64 87.18 10.64L87.18 10.64L87.18 10.64Q86.23 10.64 84.77 10.23L84.77 10.23L84.95 9.52L84.95 9.52Q86.38 9.91 87.25 9.91L87.25 9.91L87.25 9.91Q88.12 9.91 88.68 9.43L88.68 9.43L88.68 9.43Q89.24 8.95 89.24 8.08L89.24 8.08L89.24 8.08Q89.24 7.21 88.83 6.80L88.83 6.80L88.83 6.80Q88.42 6.40 87.17 6.10ZM91.83 7.20L91.83 7.20L91.83 7.20Q91.83 3.77 94.50 3.77L94.50 3.77L94.50 3.77Q97.17 3.77 97.17 7.20L97.17 7.20L97.17 7.20Q97.17 10.63 94.50 10.63L94.50 10.63L94.50 10.63Q91.83 10.63 91.83 7.20ZM94.50 4.49L94.50 4.49L94.50 4.49Q92.62 4.49 92.62 7.20L92.62 7.20L92.62 7.20Q92.62 9.90 94.50 9.90L94.50 9.90L94.50 9.90Q96.38 9.90 96.38 7.20L96.38 7.20L96.38 7.20Q96.38 4.49 94.50 4.49ZM100.52 9.80L100.52 4.55L99.19 4.55L99.19 3.85L100.52 3.85L100.52 3.85Q100.52 1.08 102.58 1.08L102.58 1.08L102.58 1.08Q103.25 1.08 104.06 1.32L104.06 1.32L103.89 2.03L103.89 2.03Q103.11 1.81 102.61 1.81L102.61 1.81L102.61 1.81Q101.88 1.81 101.57 2.30L101.57 2.30L101.57 2.30Q101.26 2.79 101.26 3.85L101.26 3.85L103.80 3.85L103.80 4.55L101.26 4.55L101.26 9.80L103.82 9.80L103.82 10.50L99.13 10.50L99.13 9.80L100.52 9.80ZM107.24 7.95L107.24 4.65L106.06 4.65L106.06 3.95L107.24 3.95L107.24 2.34L107.98 2.20L107.98 3.95L110.64 3.95L110.64 4.65L107.98 4.65L107.98 7.92L107.98 7.92Q107.98 9.02 108.20 9.46L108.20 9.46L108.20 9.46Q108.42 9.91 109.09 9.91L109.09 9.91L109.09 9.91Q109.76 9.91 110.57 9.65L110.57 9.65L110.74 10.35L110.74 10.35Q109.93 10.64 109.23 10.64L109.23 10.64L109.23 10.64Q108.53 10.64 108.13 10.46L108.13 10.46L108.13 10.46Q107.73 10.28 107.54 9.88L107.54 9.88L107.54 9.88Q107.35 9.48 107.30 9.06L107.30 9.06L107.30 9.06Q107.24 8.64 107.24 7.95L107.24 7.95Z"/></g></svg>