<svg xmlns="http://www.w3.org/2000/svg" class="font" viewBox="0 0 346.015 60"><g id="edef1937-eb30-406a-853e-3f90d17dd676" fill="#fff"><path d="M5.46 10.50L1.55 10.50L1.55 9.80L3.14 9.80L3.14 2.03L1.55 2.03L1.55 1.33L5.46 1.33L5.46 2.03L3.91 2.03L3.91 9.80L5.46 9.80L5.46 10.50ZM8.06 3.85L8.78 3.85L8.81 4.41L8.81 4.41Q10.16 3.77 11.06 3.77L11.06 3.77L11.06 3.77Q11.96 3.77 12.47 4.38L12.47 4.38L12.47 4.38Q12.98 5.00 12.98 6.06L12.98 6.06L12.98 10.50L12.24 10.50L12.24 6.06L12.24 6.06Q12.24 5.38 11.90 4.93L11.90 4.93L11.90 4.93Q11.56 4.49 10.89 4.49L10.89 4.49L10.89 4.49Q10.22 4.49 8.81 5.11L8.81 5.11L8.81 10.50L8.06 10.50L8.06 3.85ZM15.06 3.85L15.78 3.85L15.81 4.41L15.81 4.41Q17.16 3.77 18.06 3.77L18.06 3.77L18.06 3.77Q18.96 3.77 19.47 4.38L19.47 4.38L19.47 4.38Q19.98 5.00 19.98 6.06L19.98 6.06L19.98 10.50L19.24 10.50L19.24 6.06L19.24 6.06Q19.24 5.38 18.90 4.93L18.90 4.93L18.90 4.93Q18.56 4.49 17.89 4.49L17.89 4.49L17.89 4.49Q17.22 4.49 15.81 5.11L15.81 5.11L15.81 10.50L15.06 10.50L15.06 3.85ZM21.83 7.20L21.83 7.20L21.83 7.20Q21.83 3.77 24.50 3.77L24.50 3.77L24.50 3.77Q27.17 3.77 27.17 7.20L27.17 7.20L27.17 7.20Q27.17 10.63 24.50 10.63L24.50 10.63L24.50 10.63Q21.83 10.63 21.83 7.20ZM24.50 4.49L24.50 4.49L24.50 4.49Q22.62 4.49 22.62 7.20L22.62 7.20L22.62 7.20Q22.62 9.90 24.50 9.90L24.50 9.90L24.50 9.90Q26.38 9.90 26.38 7.20L26.38 7.20L26.38 7.20Q26.38 4.49 24.50 4.49ZM30.84 10.50L28.74 3.85L29.58 3.85L31.42 9.83L31.67 9.83L33.43 3.85L34.27 3.85L32.24 10.50L30.84 10.50ZM40.96 10.50L36.15 10.50L36.15 1.33L40.92 1.33L40.92 2.02L36.92 2.02L36.92 5.49L40.54 5.49L40.54 6.17L36.92 6.17L36.92 9.81L40.96 9.81L40.96 10.50ZM44.69 10.50L42.84 10.50L42.84 1.33L44.72 1.33L44.72 1.33Q45.75 1.33 46.42 1.53L46.42 1.53L46.42 1.53Q47.08 1.74 47.54 2.25L47.54 2.25L47.54 2.25Q48.01 2.77 48.21 3.66L48.21 3.66L48.21 3.66Q48.41 4.55 48.41 5.92L48.41 5.92L48.41 5.92Q48.41 7.28 48.19 8.18L48.19 8.18L48.19 8.18Q47.96 9.09 47.47 9.59L47.47 9.59L47.47 9.59Q46.98 10.09 46.33 10.30L46.33 10.30L46.33 10.30Q45.67 10.50 44.69 10.50L44.69 10.50ZM46.36 9.49L46.36 9.49L46.36 9.49Q46.96 9.18 47.27 8.34L47.27 8.34L47.27 8.34Q47.59 7.49 47.59 5.92L47.59 5.92L47.59 5.92Q47.59 4.34 47.28 3.49L47.28 3.49L47.28 3.49Q46.97 2.65 46.38 2.34L46.38 2.34L46.38 2.34Q45.79 2.03 44.72 2.03L44.72 2.03L43.61 2.03L43.61 9.80L44.69 9.80L44.69 9.80Q45.77 9.80 46.36 9.49ZM49.76 7.85L49.76 7.85L49.76 1.33L50.53 1.33L50.53 7.76L50.53 7.76Q50.53 9.91 52.50 9.91L52.50 9.91L52.50 9.91Q53.49 9.91 53.98 9.32L53.98 9.32L53.98 9.32Q54.47 8.72 54.47 7.76L54.47 7.76L54.47 1.33L55.24 1.33L55.24 7.85L55.24 7.85Q55.24 9.21 54.54 9.93L54.54 9.93L54.54 9.93Q53.83 10.64 52.47 10.64L52.47 10.64L52.47 10.64Q51.11 10.64 50.44 9.90L50.44 9.90L50.44 9.90Q49.76 9.16 49.76 7.85Z" transform="matrix(6.444683074951172,0,0,6.444683074951172,-9.989255905151367,-8.571429252624512)"/></g></svg>