<?xml version="1.0" encoding="UTF-8" standalone="no"?>
<svg
   data-v-423bf9ae=""
   viewBox="0 0 229 205"
   class="iconAboveSlogan"
   version="1.1"
   id="svg11"
   sodipodi:docname="logo_black.svg"
   inkscape:version="1.2 (dc2aeda, 2022-05-15)"
   inkscape:export-filename="black.svg"
   inkscape:export-xdpi="97.155365"
   inkscape:export-ydpi="97.155365"
   xmlns:inkscape="http://www.inkscape.org/namespaces/inkscape"
   xmlns:sodipodi="http://sodipodi.sourceforge.net/DTD/sodipodi-0.dtd"
   xmlns="http://www.w3.org/2000/svg"
   xmlns:svg="http://www.w3.org/2000/svg">
  <defs
     id="defs15" />
  <sodipodi:namedview
     id="namedview13"
     pagecolor="#ffffff"
     bordercolor="#000000"
     borderopacity="0.25"
     inkscape:showpageshadow="2"
     inkscape:pageopacity="0.0"
     inkscape:pagecheckerboard="0"
     inkscape:deskcolor="#d1d1d1"
     showgrid="false"
     inkscape:zoom="0.70145622"
     inkscape:cx="-381.34953"
     inkscape:cy="448.353"
     inkscape:window-width="1920"
     inkscape:window-height="1011"
     inkscape:window-x="0"
     inkscape:window-y="0"
     inkscape:window-maximized="1"
     inkscape:current-layer="svg11" />
  <!---->
  <!---->
  <!---->
  <!---->
  <g
     data-v-423bf9ae=""
     id="4ca0650b-619a-4794-bdd3-ced5bca0f464"
     transform="matrix(2.3456235,0,0,2.3456235,-2.3193177,-14.768609)"
     stroke="none"
     fill="#ffffff"
     style="fill:#000000">
    <path
       d="m 96.5,9.6 h -64 c -1.3,0 -2.3,1 -2.3,2.3 0,1.3 1,2.3 2.3,2.3 h 4.2 V 35 l 1,1.6 3.5,1 V 14.2 H 87.7 V 53.6 H 41.3 v -7.1 l 6.5,1.3 c 1.2,0.2 2.5,-0.5 2.8,-1.7 0.4,-1.3 -0.4,-2.6 -1.7,-3 L 36.4,39.5 30.5,30.2 C 30.4,30.1 30.4,30 30.3,29.9 29.7,29.3 28.4,28.2 27.7,27.7 24.8,25.5 22,24.1 21.4,23.8 c -0.1,0 -0.1,-0.1 -0.1,-0.2 v -2.3 c 0.3,-0.7 0.6,-1.5 0.7,-2.1 0.1,0 0.1,0.1 0.2,0.1 0.3,0 0.7,-0.4 1.2,-2 C 23.9,15.7 23.6,15.1 23.2,15 24.5,8.9 21.6,8.6 21.6,8.6 21.6,8.6 21,7.8 19.8,7.1 19.1,6.7 18.2,6.4 17.1,6.4 h -0.6 c -0.5,0 -0.9,0.1 -1.3,0.2 -0.5,0.2 -1,0.4 -1.5,0.7 -0.5,0.3 -1,0.8 -1.5,1.2 -0.7,0.7 -1.3,1.7 -1.6,2.8 -0.3,1 -0.3,2.1 0.1,3.2 h -0.1 c -0.5,0 -1,0.4 -0.5,2.3 0.4,1.5 0.8,1.9 1.1,2 0.1,0.9 0.4,1.8 0.9,2.7 v 2 c 0,0.1 -0.1,0.2 -0.1,0.2 -0.7,0.4 -4.5,2.2 -7.9,5 -0.5,0.4 -0.8,0.9 -0.9,1.5 l -1.8,11 c -0.3,1.6 -0.3,3.3 0,4.9 l 1.9,12.3 c 0.2,1.3 1.3,2.1 2.6,2 1,-0.1 1.8,-0.7 2.1,-1.6 l 2.4,32.7 c 0.1,1.2 1.1,2.1 2.2,2.1 H 20 c 1.2,0 2.2,-0.9 2.2,-2.1 l 2.8,-33.3 2.2,-20 3.7,5.3 c 0.5,0.7 1.3,1.2 2.1,1.4 l 3.6,0.7 v 8.3 c 0,2.3 1.9,4.3 4.3,4.3 H 62.2 V 68.9 L 41.7,89.4 c -0.9,0.9 -0.9,2.3 0,3.2 0.4,0.4 1,0.7 1.6,0.7 0.6,0 1.2,-0.2 1.6,-0.7 L 62.2,75.3 V 91 c 0,1.3 1,2.3 2.3,2.3 1.3,0 2.3,-1 2.3,-2.3 V 75.3 l 17.3,17.3 c 0.4,0.4 1,0.7 1.6,0.7 0.6,0 1.2,-0.2 1.6,-0.7 0.9,-0.9 0.9,-2.3 0,-3.2 L 66.8,68.8 V 58.1 H 88 c 2.3,0 4.3,-1.9 4.3,-4.3 V 14.2 h 4.2 c 1.3,0 2.3,-1 2.3,-2.3 0,-1.3 -1,-2.3 -2.3,-2.3 z M 16.6,44 14.5,41.6 15.9,29.9 c -2.7,-3.9 0.2,-4 0.7,-4 0.5,0 3.5,0.2 0.7,4.1 l 1.3,11.7 z m 51.6,0.4 v 0.9 c 0,0.7 -0.6,1.4 -1.3,1.5 l -0.2,0.8 c -0.1,0.5 -0.6,0.8 -1,0.8 h -2.3 c -0.5,0 -0.9,-0.3 -1,-0.8 l -0.2,-0.8 c -0.7,-0.1 -1.3,-0.7 -1.3,-1.5 v -0.9 c 0,-0.5 0.4,-0.9 0.9,-0.9 h 5.5 c 0.5,0 0.9,0.4 0.9,0.9 z M 64.6,21.2 c -0.5,0 -0.9,-0.4 -0.9,-0.9 v -3.1 c 0,-0.5 0.4,-0.9 0.9,-0.9 0.5,0 0.9,0.4 0.9,0.9 v 3.1 c 0,0.5 -0.4,0.9 -0.9,0.9 z m -11.3,9.5 c 0.5,0 0.9,0.4 0.9,0.9 0,0.5 -0.4,0.9 -0.9,0.9 h -3.1 c -0.5,0 -0.9,-0.4 -0.9,-0.9 0,-0.5 0.4,-0.9 0.9,-0.9 z m 22.6,1.8 c -0.5,0 -0.9,-0.4 -0.9,-0.9 0,-0.5 0.4,-0.9 0.9,-0.9 H 79 c 0.5,0 0.9,0.4 0.9,0.9 0,0.5 -0.4,0.9 -0.9,0.9 z M 57.2,39 c 0.4,0.4 0.4,0.9 0,1.3 L 55,42.5 c -0.2,0.2 -0.4,0.3 -0.6,0.3 -0.2,0 -0.5,-0.1 -0.6,-0.3 -0.4,-0.4 -0.4,-0.9 0,-1.3 L 56,39 c 0.3,-0.4 0.9,-0.4 1.2,0 z M 75.5,20.7 c 0.4,0.4 0.4,0.9 0,1.3 l -2.2,2.2 c -0.2,0.2 -0.4,0.3 -0.6,0.3 -0.2,0 -0.5,-0.1 -0.7,-0.3 -0.4,-0.4 -0.4,-0.9 0,-1.3 l 2.2,-2.2 c 0.4,-0.3 0.9,-0.3 1.3,0 z m -18.3,2.2 c 0.4,0.4 0.4,0.9 0,1.3 -0.2,0.2 -0.4,0.3 -0.6,0.3 -0.2,0 -0.5,-0.1 -0.6,-0.3 L 53.7,22 c -0.4,-0.4 -0.4,-0.9 0,-1.3 0.4,-0.4 0.9,-0.4 1.3,0 z m 16.1,16.1 2.2,2.2 c 0.4,0.4 0.4,0.9 0,1.3 -0.2,0.2 -0.4,0.3 -0.6,0.3 -0.2,0 -0.5,-0.1 -0.6,-0.3 L 72,40.2 c -0.4,-0.4 -0.4,-0.9 0,-1.3 0.4,-0.3 0.9,-0.3 1.3,0.1 z M 56.4,31.8 c 0,2.1 0.9,4.1 2.3,5.6 0.8,0.9 1.4,2 1.6,3.2 0.2,1 1,1.8 2.1,1.8 h 4.5 c 1,0 1.9,-0.8 2.1,-1.8 0.2,-1.2 0.7,-2.3 1.6,-3.2 1.5,-1.5 2.3,-3.6 2.3,-5.7 0,-4.5 -3.7,-8.2 -8.3,-8.2 h -0.1 c -4.5,0 -8.2,3.7 -8.1,8.3 z m 5.8,1.5 c 1,-1.7 2,-3.4 3,-5.2 0.1,-0.1 0.1,-0.2 0.3,-0.2 0.2,0.1 0.1,0.2 0.1,0.4 -0.1,0.4 -0.2,0.9 -0.2,1.3 -0.1,0.8 -0.3,1.5 -0.4,2.3 v 0.2 h 2 c 0.3,0 0.4,0.1 0.2,0.4 -1,1.7 -2,3.4 -3,5.2 -0.1,0.1 -0.1,0.2 -0.3,0.2 -0.2,-0.1 -0.1,-0.2 -0.1,-0.4 0.1,-0.4 0.2,-0.9 0.2,-1.3 0.1,-0.8 0.3,-1.5 0.4,-2.3 v -0.2 h -2 c -0.3,0 -0.4,-0.1 -0.2,-0.4 z"
       id="path5"
       style="fill:#000000" />
  </g>
  <!---->
</svg>
